<svg width="19" height="18" viewBox="0 0 19 18" fill="none" xmlns="http://www.w3.org/2000/svg">
<g filter="url(#filter0_i_2001_851)">
<path d="M17.9233 3.77169C17.3129 4.04213 16.6573 4.22486 15.968 4.30746C16.6792 3.88191 17.2113 3.21215 17.465 2.42314C16.7968 2.82002 16.0655 3.09939 15.3029 3.24908C14.7901 2.70152 14.1108 2.33859 13.3706 2.21664C12.6304 2.09468 11.8706 2.22052 11.2092 2.57463C10.5478 2.92873 10.0218 3.49128 9.71293 4.17494C9.40403 4.8586 9.32948 5.62512 9.50085 6.3555C8.14696 6.28752 6.82249 5.93562 5.6134 5.32264C4.4043 4.70965 3.33761 3.84929 2.48255 2.79737C2.19018 3.30171 2.02207 3.88645 2.02207 4.50919C2.02175 5.0698 2.1598 5.62183 2.42399 6.11629C2.68818 6.61075 3.07033 7.03236 3.53654 7.3437C2.99586 7.3265 2.46711 7.1804 1.9943 6.91757V6.96143C1.99424 7.74771 2.26622 8.5098 2.76409 9.11837C3.26196 9.72695 3.95504 10.1445 4.72575 10.3003C4.22418 10.436 3.69832 10.456 3.18789 10.3588C3.40534 11.0353 3.8289 11.6269 4.39929 12.0508C4.96969 12.4746 5.65834 12.7095 6.36886 12.7225C5.16272 13.6694 3.67314 14.183 2.13975 14.1807C1.86813 14.1808 1.59673 14.1649 1.32697 14.1332C2.88344 15.134 4.6953 15.6651 6.54574 15.663C12.8097 15.663 16.2341 10.475 16.2341 5.97542C16.2341 5.82923 16.2304 5.68159 16.2239 5.5354C16.8899 5.05371 17.4649 4.45722 17.9218 3.77388L17.9233 3.77169Z" fill="black"/>
</g>
<defs>
<filter id="filter0_i_2001_851" x="0.64209" y="0.163147" width="17.5421" height="21.5421" filterUnits="userSpaceOnUse" color-interpolation-filters="sRGB">
<feFlood flood-opacity="0" result="BackgroundImageFix"/>
<feBlend mode="normal" in="SourceGraphic" in2="BackgroundImageFix" result="shape"/>
<feColorMatrix in="SourceAlpha" type="matrix" values="0 0 0 0 0 0 0 0 0 0 0 0 0 0 0 0 0 0 127 0" result="hardAlpha"/>
<feOffset dy="4"/>
<feGaussianBlur stdDeviation="7.5"/>
<feComposite in2="hardAlpha" operator="arithmetic" k2="-1" k3="1"/>
<feColorMatrix type="matrix" values="0 0 0 0 0 0 0 0 0 0 0 0 0 0 0 0 0 0 0.2 0"/>
<feBlend mode="normal" in2="shape" result="effect1_innerShadow_2001_851"/>
</filter>
</defs>
</svg>
