<svg width="19" height="19" viewBox="0 0 19 19" fill="none" xmlns="http://www.w3.org/2000/svg">
<g filter="url(#filter0_i_2001_857)">
<path fill-rule="evenodd" clip-rule="evenodd" d="M6.09842 1.42126C6.95579 1.38179 7.22916 1.37302 9.41315 1.37302C11.5971 1.37302 11.8705 1.38252 12.7271 1.42126C13.5838 1.46 14.1685 1.59668 14.6802 1.79476C15.2159 1.99722 15.702 2.31371 16.104 2.72303C16.5133 3.1243 16.8291 3.60963 17.0308 4.14613C17.2296 4.65778 17.3656 5.24251 17.405 6.09769C17.4445 6.95652 17.4533 7.22989 17.4533 9.41315C17.4533 11.5971 17.4438 11.8705 17.405 12.7279C17.3663 13.5831 17.2296 14.1678 17.0308 14.6794C16.8291 15.216 16.5128 15.7021 16.104 16.104C15.702 16.5133 15.2159 16.8291 14.6802 17.0308C14.1685 17.2296 13.5838 17.3656 12.7286 17.405C11.8705 17.4445 11.5971 17.4533 9.41315 17.4533C7.22916 17.4533 6.95579 17.4438 6.09842 17.405C5.24324 17.3663 4.65851 17.2296 4.14686 17.0308C3.61031 16.829 3.12417 16.5128 2.7223 16.104C2.31326 15.7025 1.99672 15.2166 1.79476 14.6802C1.59668 14.1685 1.46073 13.5838 1.42126 12.7286C1.38179 11.8698 1.37302 11.5964 1.37302 9.41315C1.37302 7.22916 1.38252 6.95579 1.42126 6.09915C1.46 5.24251 1.59668 4.65778 1.79476 4.14613C1.99702 3.60969 2.3138 3.1238 2.72303 2.7223C3.12433 2.31335 3.60998 1.99682 4.14613 1.79476C4.65778 1.59668 5.24251 1.46073 6.09769 1.42126H6.09842ZM12.6621 2.86848C11.8142 2.82974 11.5599 2.8217 9.41315 2.8217C7.26643 2.8217 7.01207 2.82974 6.1642 2.86848C5.37993 2.9043 4.95453 3.03513 4.67093 3.1455C4.29597 3.29168 4.02772 3.46491 3.74632 3.74632C3.47956 4.00583 3.27427 4.32176 3.1455 4.67093C3.03513 4.95453 2.9043 5.37993 2.86848 6.1642C2.82974 7.01207 2.8217 7.26643 2.8217 9.41315C2.8217 11.5599 2.82974 11.8142 2.86848 12.6621C2.9043 13.4464 3.03513 13.8718 3.1455 14.1554C3.27414 14.504 3.47953 14.8205 3.74632 15.08C4.00579 15.3468 4.32228 15.5522 4.67093 15.6808C4.95453 15.7912 5.37993 15.922 6.1642 15.9578C7.01207 15.9966 7.2657 16.0046 9.41315 16.0046C11.5606 16.0046 11.8142 15.9966 12.6621 15.9578C13.4464 15.922 13.8718 15.7912 14.1554 15.6808C14.5303 15.5346 14.7986 15.3614 15.08 15.08C15.3468 14.8205 15.5522 14.504 15.6808 14.1554C15.7912 13.8718 15.922 13.4464 15.9578 12.6621C15.9966 11.8142 16.0046 11.5599 16.0046 9.41315C16.0046 7.26643 15.9966 7.01207 15.9578 6.1642C15.922 5.37993 15.7912 4.95453 15.6808 4.67093C15.5346 4.29597 15.3614 4.02772 15.08 3.74632C14.8204 3.47958 14.5045 3.2743 14.1554 3.1455C13.8718 3.03513 13.4464 2.9043 12.6621 2.86848ZM8.3862 11.8917C8.95973 12.1304 9.59835 12.1627 10.193 11.9829C10.7876 11.8031 11.3014 11.4224 11.6466 10.9059C11.9917 10.3893 12.1468 9.76901 12.0854 9.15082C12.024 8.53264 11.7499 7.95494 11.3099 7.51641C11.0294 7.23608 10.6902 7.02144 10.3168 6.88792C9.9434 6.75441 9.54503 6.70535 9.15038 6.74427C8.75573 6.7832 8.37462 6.90914 8.03449 7.11303C7.69435 7.31693 7.40366 7.5937 7.18333 7.92342C6.963 8.25315 6.81852 8.62762 6.76028 9.01988C6.70205 9.41215 6.73151 9.81244 6.84655 10.192C6.96159 10.5715 7.15934 10.9208 7.42557 11.2147C7.6918 11.5086 8.01988 11.7398 8.3862 11.8917ZM6.49092 6.49093C6.87468 6.10717 7.33026 5.80277 7.83165 5.59508C8.33305 5.3874 8.87044 5.2805 9.41315 5.2805C9.95585 5.2805 10.4932 5.3874 10.9946 5.59508C11.496 5.80276 11.9516 6.10717 12.3354 6.49093C12.7191 6.87468 13.0235 7.33026 13.2312 7.83165C13.4389 8.33305 13.5458 8.87044 13.5458 9.41315C13.5458 9.95585 13.4389 10.4932 13.2312 10.9946C13.0235 11.496 12.7191 11.9516 12.3354 12.3354C11.5603 13.1104 10.5092 13.5458 9.41315 13.5458C8.3171 13.5458 7.26595 13.1104 6.49092 12.3354C5.7159 11.5603 5.2805 10.5092 5.2805 9.41315C5.2805 8.3171 5.7159 7.26595 6.49092 6.49093ZM14.4623 5.89596C14.5574 5.80625 14.6336 5.69837 14.6862 5.57872C14.7389 5.45906 14.767 5.33005 14.7689 5.19934C14.7708 5.06862 14.7465 4.93885 14.6973 4.81771C14.6482 4.69657 14.5752 4.58652 14.4828 4.49408C14.3903 4.40164 14.2803 4.32868 14.1592 4.27954C14.038 4.23039 13.9082 4.20605 13.7775 4.20795C13.6468 4.20986 13.5178 4.23797 13.3981 4.29063C13.2785 4.34329 13.1706 4.41942 13.0809 4.51451C12.9064 4.69946 12.8109 4.94512 12.8146 5.19934C12.8183 5.45356 12.921 5.69633 13.1008 5.87611C13.2805 6.05589 13.5233 6.15852 13.7775 6.16223C14.0317 6.16594 14.2774 6.07042 14.4623 5.89596Z" fill="black"/>
</g>
<defs>
<filter id="filter0_i_2001_857" x="0.64209" y="0.642097" width="17.5421" height="21.5421" filterUnits="userSpaceOnUse" color-interpolation-filters="sRGB">
<feFlood flood-opacity="0" result="BackgroundImageFix"/>
<feBlend mode="normal" in="SourceGraphic" in2="BackgroundImageFix" result="shape"/>
<feColorMatrix in="SourceAlpha" type="matrix" values="0 0 0 0 0 0 0 0 0 0 0 0 0 0 0 0 0 0 127 0" result="hardAlpha"/>
<feOffset dy="4"/>
<feGaussianBlur stdDeviation="7.5"/>
<feComposite in2="hardAlpha" operator="arithmetic" k2="-1" k3="1"/>
<feColorMatrix type="matrix" values="0 0 0 0 0 0 0 0 0 0 0 0 0 0 0 0 0 0 0.2 0"/>
<feBlend mode="normal" in2="shape" result="effect1_innerShadow_2001_857"/>
</filter>
</defs>
</svg>
