<svg width="61" height="68" viewBox="0 0 61 68" fill="none" xmlns="http://www.w3.org/2000/svg">
<path d="M47.9982 0.71875H12.4777C11.0058 0.71875 9.59408 1.32564 8.55324 2.4059C7.5124 3.48617 6.92766 4.95132 6.92766 6.47905V26.0641C6.92766 27.5918 7.5124 29.0569 8.55324 30.1372C9.59408 31.2175 11.0058 31.8244 12.4777 31.8244H47.9982C49.4701 31.8244 50.8818 31.2175 51.9227 30.1372C52.9635 29.0569 53.5482 27.5918 53.5482 26.0641V6.47905C53.5482 4.95132 52.9635 3.48617 51.9227 2.4059C50.8818 1.32564 49.4701 0.71875 47.9982 0.71875ZM15.8078 29.5202V26.0641C15.8078 25.1474 16.1586 24.2683 16.7831 23.6202C17.4076 22.972 18.2546 22.6079 19.1378 22.6079H25.7979C26.6811 22.6079 27.5281 22.972 28.1526 23.6202C28.7771 24.2683 29.1279 25.1474 29.1279 26.0641V29.5202H15.8078ZM51.3282 26.0641C51.3282 26.9807 50.9774 27.8598 50.3529 28.508C49.7284 29.1561 48.8814 29.5202 47.9982 29.5202H31.348V26.0641C31.348 24.5363 30.7632 23.0712 29.7224 21.9909C28.6815 20.9107 27.2699 20.3038 25.7979 20.3038H19.1378C17.6658 20.3038 16.2542 20.9107 15.2133 21.9909C14.1725 23.0712 13.5877 24.5363 13.5877 26.0641V29.5202H12.4777C11.5945 29.5202 10.7475 29.1561 10.123 28.508C9.49853 27.8598 9.14769 26.9807 9.14769 26.0641V6.47905C9.14769 5.56241 9.49853 4.68332 10.123 4.03516C10.7475 3.387 11.5945 3.02287 12.4777 3.02287H47.9982C48.8814 3.02287 49.7284 3.387 50.3529 4.03516C50.9774 4.68332 51.3282 5.56241 51.3282 6.47905V26.0641ZM12.4777 53.7135H5.81765C4.34568 53.7135 2.934 54.3204 1.89316 55.4007C0.852316 56.4809 0.267578 57.9461 0.267578 59.4738V66.3862C0.267578 66.6917 0.384526 66.9847 0.592694 67.2008C0.800862 67.4168 1.0832 67.5382 1.37759 67.5382H16.9178C17.2122 67.5382 17.4945 67.4168 17.7027 67.2008C17.9109 66.9847 18.0278 66.6917 18.0278 66.3862V59.4738C18.0278 57.9461 17.4431 56.4809 16.4022 55.4007C15.3614 54.3204 13.9497 53.7135 12.4777 53.7135ZM15.8078 65.2341H2.48761V59.4738C2.48761 58.5572 2.83845 57.6781 3.46295 57.0299C4.08746 56.3818 4.93446 56.0176 5.81765 56.0176H12.4777C13.3609 56.0176 14.2079 56.3818 14.8324 57.0299C15.4569 57.6781 15.8078 58.5572 15.8078 59.4738V65.2341ZM3.59762 45.6491C3.59762 46.7884 3.92313 47.9021 4.53297 48.8493C5.14282 49.7966 6.00963 50.5349 7.02377 50.9709C8.03791 51.4069 9.15384 51.521 10.2305 51.2987C11.3071 51.0764 12.296 50.5278 13.0722 49.7222C13.8484 48.9166 14.377 47.8903 14.5911 46.7729C14.8053 45.6555 14.6954 44.4973 14.2753 43.4447C13.8552 42.3922 13.1438 41.4925 12.2311 40.8596C11.3184 40.2266 10.2454 39.8888 9.14769 39.8888C7.67572 39.8888 6.26404 40.4957 5.2232 41.5759C4.18236 42.6562 3.59762 44.1214 3.59762 45.6491ZM9.14769 42.1929C9.80631 42.1929 10.4501 42.3956 10.9978 42.7754C11.5454 43.1551 11.9722 43.6949 12.2242 44.3265C12.4763 44.958 12.5422 45.6529 12.4137 46.3234C12.2853 46.9938 11.9681 47.6096 11.5024 48.093C11.0367 48.5763 10.4433 48.9055 9.79735 49.0389C9.15138 49.1722 8.48182 49.1038 7.87334 48.8422C7.26485 48.5806 6.74477 48.1376 6.37886 47.5692C6.01295 47.0009 5.81765 46.3327 5.81765 45.6491C5.81765 44.7325 6.16849 43.8534 6.79299 43.2052C7.4175 42.557 8.26451 42.1929 9.14769 42.1929ZM54.6582 53.7135H47.9982C46.5262 53.7135 45.1145 54.3204 44.0737 55.4007C43.0328 56.4809 42.4481 57.9461 42.4481 59.4738V66.3862C42.4481 66.6917 42.565 66.9847 42.7732 67.2008C42.9814 67.4168 43.2637 67.5382 43.5581 67.5382H59.0983C59.3927 67.5382 59.675 67.4168 59.8832 67.2008C60.0914 66.9847 60.2083 66.6917 60.2083 66.3862V59.4738C60.2083 57.9461 59.6236 56.4809 58.5827 55.4007C57.5419 54.3204 56.1302 53.7135 54.6582 53.7135ZM57.9883 65.2341H44.6681V59.4738C44.6681 58.5572 45.019 57.6781 45.6435 57.0299C46.268 56.3818 47.115 56.0176 47.9982 56.0176H54.6582C55.5414 56.0176 56.3884 56.3818 57.0129 57.0299C57.6374 57.6781 57.9883 58.5572 57.9883 59.4738V65.2341ZM45.7781 45.6491C45.7781 46.7884 46.1036 47.9021 46.7135 48.8493C47.3233 49.7966 48.1901 50.5349 49.2043 50.9709C50.2184 51.4069 51.3344 51.521 52.411 51.2987C53.4876 51.0764 54.4765 50.5278 55.2527 49.7222C56.0289 48.9166 56.5575 47.8903 56.7716 46.7729C56.9858 45.6555 56.8759 44.4973 56.4558 43.4447C56.0357 42.3922 55.3244 41.4925 54.4117 40.8596C53.499 40.2266 52.4259 39.8888 51.3282 39.8888C49.8562 39.8888 48.4446 40.4957 47.4037 41.5759C46.3629 42.6562 45.7781 44.1214 45.7781 45.6491ZM54.6582 45.6491C54.6582 46.3327 54.4629 47.0009 54.097 47.5692C53.7311 48.1376 53.211 48.5806 52.6026 48.8422C51.9941 49.1038 51.3245 49.1722 50.6786 49.0389C50.0326 48.9055 49.4392 48.5763 48.9735 48.093C48.5078 47.6096 48.1906 46.9938 48.0622 46.3234C47.9337 45.6529 47.9996 44.958 48.2517 44.3265C48.5037 43.6949 48.9305 43.1551 49.4781 42.7754C50.0258 42.3956 50.6696 42.1929 51.3282 42.1929C52.2114 42.1929 53.0584 42.557 53.6829 43.2052C54.3074 43.8534 54.6582 44.7325 54.6582 45.6491ZM33.568 53.7135H26.9079C25.4359 53.7135 24.0243 54.3204 22.9834 55.4007C21.9426 56.4809 21.3578 57.9461 21.3578 59.4738V66.3862C21.3578 66.6917 21.4748 66.9847 21.683 67.2008C21.8911 67.4168 22.1735 67.5382 22.4679 67.5382H38.008C38.3024 67.5382 38.5848 67.4168 38.7929 67.2008C39.0011 66.9847 39.1181 66.6917 39.1181 66.3862V59.4738C39.1181 57.9461 38.5333 56.4809 37.4925 55.4007C36.4516 54.3204 35.04 53.7135 33.568 53.7135ZM36.898 65.2341H23.5779V59.4738C23.5779 58.5572 23.9287 57.6781 24.5532 57.0299C25.1777 56.3818 26.0247 56.0176 26.9079 56.0176H33.568C34.4512 56.0176 35.2982 56.3818 35.9227 57.0299C36.5472 57.6781 36.898 58.5572 36.898 59.4738V65.2341ZM24.6879 45.6491C24.6879 46.7884 25.0134 47.9021 25.6232 48.8493C26.2331 49.7966 27.0999 50.5349 28.114 50.9709C29.1282 51.4069 30.2441 51.521 31.3207 51.2987C32.3973 51.0764 33.3862 50.5278 34.1624 49.7222C34.9386 48.9166 35.4672 47.8903 35.6814 46.7729C35.8955 45.6555 35.7856 44.4973 35.3655 43.4447C34.9455 42.3922 34.2341 41.4925 33.3214 40.8596C32.4087 40.2266 31.3356 39.8888 30.2379 39.8888C28.766 39.8888 27.3543 40.4957 26.3135 41.5759C25.2726 42.6562 24.6879 44.1214 24.6879 45.6491ZM33.568 45.6491C33.568 46.3327 33.3727 47.0009 33.0068 47.5692C32.6409 48.1376 32.1208 48.5806 31.5123 48.8422C30.9038 49.1038 30.2343 49.1722 29.5883 49.0389C28.9423 48.9055 28.349 48.5763 27.8833 48.093C27.4175 47.6096 27.1004 46.9938 26.9719 46.3234C26.8434 45.6529 26.9093 44.958 27.1614 44.3265C27.4134 43.6949 27.8403 43.1551 28.3879 42.7754C28.9355 42.3956 29.5793 42.1929 30.2379 42.1929C31.1211 42.1929 31.9681 42.557 32.5926 43.2052C33.2171 43.8534 33.568 44.7325 33.568 45.6491Z" fill="#4A4A4A"/>
<path d="M22.4679 6.47906C21.3702 6.47906 20.2971 6.8169 19.3844 7.44985C18.4717 8.0828 17.7603 8.98244 17.3403 10.035C16.9202 11.0876 16.8103 12.2458 17.0244 13.3631C17.2386 14.4805 17.7672 15.5069 18.5434 16.3125C19.3196 17.1181 20.3085 17.6667 21.3851 17.889C22.4617 18.1112 23.5776 17.9972 24.5918 17.5612C25.6059 17.1252 26.4727 16.3869 27.0826 15.4396C27.6924 14.4923 28.0179 13.3786 28.0179 12.2394C28.0179 10.7116 27.4332 9.24648 26.3923 8.16622C25.3515 7.08595 23.9398 6.47906 22.4679 6.47906ZM22.4679 15.6955C21.8092 15.6955 21.1654 15.4928 20.6178 15.1131C20.0702 14.7333 19.6433 14.1935 19.3913 13.562C19.1393 12.9305 19.0733 12.2355 19.2018 11.5651C19.3303 10.8947 19.6474 10.2788 20.1132 9.79548C20.5789 9.31212 21.1722 8.98295 21.8182 8.84959C22.4642 8.71624 23.1337 8.78468 23.7422 9.04627C24.3507 9.30786 24.8708 9.75085 25.2367 10.3192C25.6026 10.8876 25.7979 11.5558 25.7979 12.2394C25.7979 13.156 25.4471 14.0351 24.8226 14.6833C24.198 15.3314 23.351 15.6955 22.4679 15.6955Z" fill="#4A4A4A"/>
<path d="M46.8882 9.93524H33.568V12.2394H46.8882V9.93524Z" fill="#4A4A4A"/>
<path d="M46.8882 19.1517H33.568V21.4558H46.8882V19.1517Z" fill="#4A4A4A"/>
<path d="M42.4481 14.5435H33.568V16.8476H42.4481V14.5435Z" fill="#4A4A4A"/>
</svg>
