<svg width="20" height="29" viewBox="0 0 20 29" fill="none" xmlns="http://www.w3.org/2000/svg">
<path d="M7.32943 28.9978H6.02261C5.90668 28.9978 5.81183 28.9025 5.81183 28.7859V8.39567C5.81183 8.2791 5.90668 8.18372 6.02261 8.18372H7.32943C7.44536 8.18372 7.54021 8.2791 7.54021 8.39567V28.7859C7.54021 28.9025 7.44747 28.9978 7.32943 28.9978Z" fill="#CEA100"/>
<path d="M0.982921 18.0459L0.464404 16.8399C0.418033 16.7318 0.466516 16.6067 0.574012 16.5622L19.1878 8.47396C19.2953 8.42733 19.4196 8.47608 19.4639 8.58418L19.9824 9.79021C20.0288 9.89831 19.9803 10.0234 19.8728 10.0679L1.25904 18.1561C1.15154 18.2028 1.02718 18.1519 0.982921 18.0459Z" fill="#CEA100"/>
<path d="M0.536083 25.7061L0.0175654 24.5C-0.0288057 24.392 0.0196773 24.2669 0.127174 24.2224L18.741 16.1341C18.8485 16.0875 18.9728 16.1362 19.0171 16.2443L19.5356 17.4504C19.582 17.5585 19.5335 17.6835 19.426 17.728L0.812202 25.8163C0.704705 25.8629 0.582455 25.8142 0.536083 25.7061Z" fill="#CEA100"/>
<path d="M13.7771 3.72196C14.7992 3.72196 15.6278 2.88877 15.6278 1.86098C15.6278 0.833189 14.7992 0 13.7771 0C12.7551 0 11.9265 0.833189 11.9265 1.86098C11.9265 2.88877 12.7551 3.72196 13.7771 3.72196Z" fill="white"/>
<path d="M12.913 5.92211V25.4031C12.913 25.509 12.9973 25.5938 13.1027 25.5938H14.4516C14.557 25.5938 14.6413 25.509 14.6413 25.4031V5.92211C14.6413 5.85853 14.5823 5.81613 14.5212 5.83097C14.283 5.89244 14.0343 5.92635 13.7771 5.92635C13.52 5.92635 13.2713 5.89244 13.0331 5.83097C12.972 5.81613 12.913 5.86065 12.913 5.92211Z" fill="#CEA100"/>
</svg>
