<svg width="327" height="59" viewBox="0 0 327 59" fill="none" xmlns="http://www.w3.org/2000/svg">
<g clip-path="url(#clip0_2001_789)">
<path d="M319.402 51.19C318.971 53.5087 317.806 55.3688 315.906 56.783C314.095 58.0952 312.018 58.7577 309.663 58.7577H291.11L291.908 54.4897H310.461C311.626 54.4897 312.677 54.2222 313.639 53.6998C314.729 53.0501 315.387 52.1838 315.59 51.0881C315.792 49.9924 315.45 49.1388 314.564 48.54C313.829 48.0432 312.88 47.7884 311.714 47.7884H300.241C298.126 47.7884 296.467 47.2023 295.264 46.0302C293.985 44.7689 293.529 43.0872 293.921 41.0106C294.301 38.9594 295.378 37.2904 297.125 36.0291C298.772 34.857 300.646 34.271 302.761 34.271H321.099L320.301 38.539H301.963C301.153 38.539 300.431 38.7683 299.772 39.2142C299.114 39.6729 298.721 40.2716 298.582 41.0361C298.43 41.8259 298.607 42.4375 299.101 42.8579C299.595 43.2911 300.241 43.5077 301.051 43.5077H312.512C314.868 43.5077 316.691 44.1829 318.009 45.5461C319.364 46.9985 319.845 48.8713 319.402 51.19ZM287.26 58.745H266.25L270.809 34.271H291.819L291.021 38.539H274.241L271.278 54.477H288.058L287.26 58.745ZM288.071 48.4636H274.178L274.976 44.1956H288.868L288.071 48.4636ZM260.526 58.745H256.284L260.843 34.271H265.085L260.526 58.745ZM251.763 58.745H236.312C232.779 58.745 230.069 57.5601 228.195 55.2032C226.32 52.8335 225.712 49.8523 226.396 46.2468C227.068 42.6668 228.752 39.7748 231.449 37.5707C234.147 35.3794 237.287 34.271 240.871 34.271H254.612L253.814 38.539H240.074C237.743 38.539 235.692 39.2906 233.906 40.794C232.12 42.2973 231.006 44.2339 230.563 46.6035C230.132 48.9477 230.525 50.846 231.766 52.2984C233.007 53.7508 234.78 54.4897 237.11 54.4897H248.331L249.318 49.1516H237.781L238.503 45.2403H254.283L251.763 58.745ZM219.19 46.6035C219.634 44.2339 219.241 42.3101 218.013 40.794C216.784 39.2906 214.999 38.539 212.643 38.539H205.842C203.512 38.539 201.461 39.2906 199.675 40.794C197.889 42.2973 196.775 44.2339 196.332 46.6035C195.901 48.9477 196.294 50.846 197.535 52.2984C198.776 53.7508 200.549 54.4897 202.879 54.4897H209.68C212.035 54.4897 214.099 53.7635 215.872 52.2984C217.645 50.846 218.76 48.9477 219.19 46.6035ZM223.458 46.2468C222.787 49.8523 221.077 52.8335 218.342 55.2032C215.594 57.5729 212.44 58.745 208.882 58.745H202.081C198.548 58.745 195.838 57.5601 193.964 55.2032C192.089 52.8335 191.481 49.8523 192.165 46.2468C192.836 42.6668 194.521 39.7748 197.218 37.5707C199.916 35.3794 203.056 34.271 206.64 34.271H213.441C217.05 34.271 219.786 35.3667 221.66 37.5707C223.522 39.7748 224.129 42.6668 223.458 46.2468ZM190.861 58.745H169.889L174.448 34.271H178.691L174.929 54.477H191.671L190.861 58.745ZM165.52 46.6035C165.963 44.2339 165.571 42.3101 164.342 40.794C163.114 39.2906 161.328 38.539 158.973 38.539H152.172C149.842 38.539 147.79 39.2906 146.005 40.794C144.219 42.2973 143.104 44.2339 142.661 46.6035C142.231 48.9477 142.623 50.846 143.864 52.2984C145.105 53.7508 146.878 54.4897 149.209 54.4897H156.009C158.365 54.4897 160.429 53.7635 162.202 52.2984C163.975 50.846 165.089 48.9477 165.52 46.6035ZM169.788 46.2468C169.117 49.8523 167.407 52.8335 164.671 55.2032C161.923 57.5729 158.77 58.745 155.211 58.745H148.411C144.877 58.745 142.167 57.5601 140.293 55.2032C138.419 52.8335 137.811 49.8523 138.495 46.2468C139.166 42.6668 140.85 39.7748 143.548 37.5707C146.245 35.3794 149.386 34.271 152.97 34.271H159.77C163.38 34.271 166.115 35.3667 167.989 37.5707C169.864 39.7748 170.459 42.6668 169.788 46.2468ZM131.39 56.6301C131.099 58.2099 130.415 58.9998 129.351 58.9998C128.566 58.9998 127.781 58.5156 126.996 57.5346L114.332 41.775L111.166 58.7577H106.961L111.128 36.3986C111.229 35.8253 111.482 35.3284 111.862 34.908C112.255 34.4876 112.723 34.2837 113.293 34.2837C114.078 34.2837 114.8 34.7042 115.484 35.5323L128.148 51.2665L131.314 34.2837H135.557L131.39 56.6301ZM82.0255 58.745H77.783L82.342 34.271H86.5845L82.0255 58.745ZM102.465 58.745H98.2228L100.122 48.5655H85.85L86.6479 44.2976H100.933L102.807 34.271H107.05L102.465 58.745ZM73.6545 58.745H59.9139C56.3806 58.745 53.6705 57.5601 51.7962 55.2032C49.9219 52.8335 49.3141 49.8523 49.9979 46.2468C50.6691 42.6668 52.3534 39.7748 55.0509 37.5707C57.7484 35.3794 60.889 34.271 64.473 34.271H78.2136L77.4157 38.539H63.6752C61.345 38.539 59.2934 39.2906 57.5077 40.794C55.7221 42.2973 54.6077 44.2339 54.1644 46.6035C53.7338 48.9477 54.1264 50.846 55.3675 52.2984C56.6086 53.7508 58.3816 54.4897 60.7118 54.4897H74.4523L73.6545 58.745ZM43.5266 58.745H22.5168L27.0759 34.271H48.0856L47.2878 38.539H30.5205L27.5571 54.477H44.3244L43.5266 58.745ZM44.3371 48.4636H30.4572L31.255 44.1956H45.1476L44.3371 48.4636ZM23.4033 38.539H13.8292L10.0553 58.745H5.85082L9.61206 38.539H0L0.797839 34.271H24.1885L23.4033 38.539Z" fill="white"/>
<path d="M143.497 24.5374H137.228L131.694 17.6577H122.538L123.323 13.428H134.721C136.291 13.428 137.672 13.084 138.862 12.3833C140.217 11.5679 141.04 10.4085 141.319 8.90518C141.889 5.84752 140.242 4.31869 136.393 4.31869H122.513L118.777 24.5247H114.534L119.055 0.0507168H136.507C139.635 0.0507168 142.041 0.725949 143.712 2.08915C145.637 3.64346 146.321 5.92396 145.764 8.93066C145.384 10.9818 144.422 12.7527 142.864 14.2306C141.42 15.6193 139.622 16.5875 137.482 17.1354L143.497 24.5374ZM110.266 24.5374H89.2567L93.7778 0.063457H114.788L114.002 4.33143H97.2351L94.2843 20.2695H111.064L110.266 24.5374ZM111.064 14.2561H97.1718L97.9569 9.9881H111.849L111.064 14.2561ZM86.9898 16.9825C86.5592 19.3012 85.3941 21.1613 83.4945 22.5754C81.6836 23.8877 79.6066 24.5502 77.2511 24.5502H58.6982L59.4834 20.2822H78.0363C79.2014 20.2822 80.2525 20.0147 81.215 19.4923C82.3041 18.8426 82.95 17.9762 83.1526 16.8806C83.3552 15.7849 83.0133 14.9313 82.1268 14.3325C81.3923 13.8356 80.4425 13.5808 79.2774 13.5808H67.8163C65.7014 13.5808 64.0424 12.9948 62.8394 11.8227C61.5603 10.5614 61.1044 8.87969 61.4843 6.80304C61.8642 4.75186 62.928 3.08289 64.6883 1.82161C66.3346 0.649507 68.2089 0.063457 70.3238 0.063457H88.6488L87.8636 4.33143H69.526C68.7155 4.33143 67.9936 4.56076 67.3351 5.00667C66.6766 5.46531 66.284 6.0641 66.1447 6.82852C65.9927 7.61841 66.17 8.22994 66.6639 8.65037C67.1578 9.08354 67.8037 9.30012 68.6142 9.30012H80.0752C82.4307 9.30012 84.2544 9.97535 85.5714 11.3386C86.9392 12.7909 87.4077 14.6638 86.9898 16.9825ZM57.5204 24.5374L52.0749 24.4992L49.2508 17.6577H37.7138L41.0571 13.428H47.5031L44.5777 6.38261L30.2546 24.512H24.809L42.1082 2.39492C42.5514 1.82161 43.1087 1.29926 43.7925 0.81513C44.603 0.280041 45.2869 -0.000244141 45.8568 -0.000244141C46.4773 -0.000244141 47.0725 0.267301 47.6298 0.78965C48.1237 1.23556 48.4909 1.78339 48.7315 2.39492L57.5204 24.5374ZM23.0867 24.5374H2.11493L6.63602 0.0761972H10.8785L7.14258 20.2822H23.8845L23.0867 24.5374Z" fill="white"/>
<path fill-rule="evenodd" clip-rule="evenodd" d="M137.596 22.7921H327L326.506 24.7669H137.102L137.596 22.7921Z" fill="white"/>
<path d="M312.614 14.371H318.642V15.301H316.122V22.0788H315.121V15.301H312.614V14.371Z" fill="white"/>
<path d="M325.683 22.0788V17.5305C325.683 17.3012 325.708 16.333 325.708 15.6068H325.683L323.593 22.0788H322.606L320.516 15.6195H320.491C320.491 16.333 320.516 17.3012 320.516 17.5305V22.0788H319.541V14.371H320.985L323.099 20.8812H323.125L325.24 14.371H326.671V22.0788H325.683Z" fill="white"/>
</g>
<defs>
<clipPath id="clip0_2001_789">
<rect width="327" height="59" fill="white"/>
</clipPath>
</defs>
</svg>
