<svg width="265" height="47" viewBox="0 0 265 47" fill="none" xmlns="http://www.w3.org/2000/svg">
<g clip-path="url(#clip0_2001_660)">
<path d="M258.372 40.4896C258.023 42.3236 257.081 43.7948 255.544 44.9134C254.079 45.9513 252.399 46.4753 250.494 46.4753H235.486L236.131 43.0995H251.139C252.082 43.0995 252.932 42.8879 253.711 42.4748C254.592 41.9608 255.124 41.2756 255.288 40.409C255.452 39.5423 255.175 38.8672 254.458 38.3936C253.864 38.0006 253.096 37.799 252.153 37.799H242.872C241.161 37.799 239.819 37.3355 238.846 36.4084C237.811 35.4108 237.443 34.0806 237.76 32.438C238.067 30.8156 238.938 29.4956 240.352 28.4979C241.684 27.5708 243.2 27.1073 244.911 27.1073H259.744L259.099 30.4831H244.265C243.61 30.4831 243.026 30.6645 242.493 31.0172C241.96 31.38 241.643 31.8536 241.53 32.4582C241.407 33.083 241.551 33.5667 241.95 33.8992C242.35 34.2418 242.872 34.4131 243.528 34.4131H252.799C254.704 34.4131 256.179 34.9472 257.245 36.0255C258.341 37.1742 258.73 38.6556 258.372 40.4896ZM232.372 46.4653H215.376L219.064 27.1073H236.06L235.414 30.4831H221.84L219.443 43.0894H233.017L232.372 46.4653ZM233.027 38.3331H221.789L222.435 34.9573H233.673L233.027 38.3331ZM210.746 46.4653H207.314L211.002 27.1073H214.434L210.746 46.4653ZM203.657 46.4653H191.159C188.301 46.4653 186.108 45.5281 184.592 43.6638C183.076 41.7895 182.584 39.4315 183.137 36.5797C183.68 33.7481 185.043 31.4606 187.225 29.7172C189.407 27.984 191.948 27.1073 194.847 27.1073H205.962L205.316 30.4831H194.201C192.316 30.4831 190.657 31.0776 189.212 32.2667C187.768 33.4558 186.866 34.9875 186.508 36.8619C186.16 38.716 186.477 40.2175 187.481 41.3663C188.485 42.5151 189.919 43.0995 191.804 43.0995H200.881L201.68 38.8773H192.347L192.931 35.7836H205.695L203.657 46.4653ZM177.308 36.8619C177.667 34.9875 177.349 33.4659 176.356 32.2667C175.362 31.0776 173.918 30.4831 172.012 30.4831H166.511C164.626 30.4831 162.966 31.0776 161.522 32.2667C160.078 33.4558 159.176 34.9875 158.818 36.8619C158.469 38.716 158.787 40.2175 159.791 41.3663C160.795 42.5151 162.229 43.0995 164.114 43.0995H169.615C171.52 43.0995 173.19 42.5251 174.624 41.3663C176.059 40.2175 176.96 38.716 177.308 36.8619ZM180.761 36.5797C180.218 39.4315 178.835 41.7895 176.622 43.6638C174.399 45.5382 171.848 46.4653 168.97 46.4653H163.468C160.61 46.4653 158.418 45.5281 156.902 43.6638C155.386 41.7895 154.894 39.4315 155.447 36.5797C155.99 33.7481 157.353 31.4606 159.535 29.7172C161.717 27.984 164.257 27.1073 167.156 27.1073H172.658C175.577 27.1073 177.79 27.9739 179.306 29.7172C180.812 31.4606 181.304 33.7481 180.761 36.5797ZM154.392 46.4653H137.427L141.115 27.1073H144.547L141.505 43.0894H155.048L154.392 46.4653ZM133.893 36.8619C134.252 34.9875 133.934 33.4659 132.94 32.2667C131.947 31.0776 130.502 30.4831 128.597 30.4831H123.096C121.211 30.4831 119.551 31.0776 118.107 32.2667C116.662 33.4558 115.761 34.9875 115.402 36.8619C115.054 38.716 115.371 40.2175 116.375 41.3663C117.379 42.5151 118.813 43.0995 120.698 43.0995H126.2C128.105 43.0995 129.775 42.5251 131.209 41.3663C132.643 40.2175 133.545 38.716 133.893 36.8619ZM137.345 36.5797C136.802 39.4315 135.419 41.7895 133.207 43.6638C130.984 45.5382 128.433 46.4653 125.554 46.4653H120.053C117.195 46.4653 115.003 45.5281 113.486 43.6638C111.97 41.7895 111.479 39.4315 112.032 36.5797C112.575 33.7481 113.937 31.4606 116.119 29.7172C118.301 27.984 120.842 27.1073 123.741 27.1073H129.242C132.162 27.1073 134.375 27.9739 135.891 29.7172C137.407 31.4606 137.888 33.7481 137.345 36.5797ZM106.285 44.7925C106.049 46.042 105.496 46.6668 104.635 46.6668C104 46.6668 103.365 46.2839 102.73 45.5079L92.4856 33.0427L89.9245 46.4753H86.5234L89.8938 28.7902C89.9758 28.3367 90.1806 27.9437 90.488 27.6112C90.8055 27.2786 91.1846 27.1174 91.6456 27.1174C92.2807 27.1174 92.8646 27.4499 93.4178 28.1049L103.662 40.55L106.223 27.1174H109.655L106.285 44.7925ZM66.3524 46.4653H62.9205L66.6085 27.1073H70.0403L66.3524 46.4653ZM82.8867 46.4653H79.4548L80.9915 38.4137H69.4462L70.0916 35.0379H81.6471L83.1633 27.1073H86.5951L82.8867 46.4653ZM59.5809 46.4653H48.4658C45.6077 46.4653 43.4154 45.5281 41.8992 43.6638C40.3831 41.7895 39.8913 39.4315 40.4445 36.5797C40.9875 33.7481 42.35 31.4606 44.532 29.7172C46.714 27.984 49.2546 27.1073 52.1538 27.1073H63.2688L62.6235 30.4831H51.5084C49.6234 30.4831 47.9638 31.0776 46.5194 32.2667C45.075 33.4558 44.1735 34.9875 43.8149 36.8619C43.4666 38.716 43.7842 40.2175 44.7881 41.3663C45.7921 42.5151 47.2263 43.0995 49.1112 43.0995H60.2263L59.5809 46.4653ZM35.2097 46.4653H18.2144L21.9023 27.1073H38.8976L38.2522 30.4831H24.6888L22.2916 43.0894H35.8551L35.2097 46.4653ZM35.8653 38.3331H24.6376L25.283 34.9573H36.521L35.8653 38.3331ZM18.9315 30.4831H11.1868L8.13398 46.4653H4.73287L7.77543 30.4831H0L0.645391 27.1073H19.5666L18.9315 30.4831Z" fill="black"/>
<path d="M116.078 19.4083H111.007L106.531 13.9667H99.1241L99.7592 10.6212H108.979C110.249 10.6212 111.366 10.3491 112.329 9.79486C113.425 9.14993 114.091 8.23292 114.316 7.04383C114.777 4.62535 113.446 3.41611 110.331 3.41611H99.1036L96.0815 19.3983H92.6497L96.3069 0.0403081H110.424C112.954 0.0403081 114.9 0.57439 116.253 1.65263C117.81 2.88203 118.363 4.68581 117.912 7.06399C117.605 8.68639 116.826 10.0871 115.566 11.256C114.398 12.3544 112.944 13.1203 111.212 13.5536L116.078 19.4083ZM89.1973 19.4083H72.202L75.8592 0.0503851H92.8545L92.2194 3.42619H78.6559L76.269 16.0325H89.8427L89.1973 19.4083ZM89.8427 11.2762H78.6047L79.2399 7.90038H90.4779L89.8427 11.2762ZM70.3683 13.4327C70.02 15.2667 69.0775 16.7379 67.5409 17.8565C66.0759 18.8944 64.3959 19.4184 62.4904 19.4184H47.4825L48.1177 16.0426H63.1256C64.068 16.0426 64.9183 15.831 65.6969 15.4178C66.5779 14.9039 67.1004 14.2187 67.2643 13.352C67.4282 12.4854 67.1516 11.8103 66.4345 11.3366C65.8403 10.9436 65.072 10.7421 64.1295 10.7421H54.8584C53.1476 10.7421 51.8056 10.2786 50.8324 9.35147C49.7977 8.35385 49.4289 7.02368 49.7363 5.38113C50.0436 3.75873 50.9041 2.43864 52.3281 1.44101C53.6598 0.513928 55.176 0.0503851 56.8868 0.0503851H71.7103L71.0751 3.42619H56.2414C55.5858 3.42619 55.0018 3.60757 54.4691 3.96027C53.9364 4.32304 53.6188 4.79666 53.5062 5.40128C53.3832 6.02606 53.5266 6.50975 53.9262 6.84229C54.3257 7.18491 54.8482 7.35622 55.5038 7.35622H64.7749C66.6803 7.35622 68.1555 7.8903 69.2209 8.96854C70.3273 10.1173 70.7064 11.5986 70.3683 13.4327ZM46.5298 19.4083L42.1247 19.3781L39.8403 13.9667H30.5077L33.2122 10.6212H38.4265L36.0601 5.04859L24.4738 19.3882H20.0687L34.0625 1.89448C34.421 1.44101 34.8718 1.02786 35.425 0.644929C36.0806 0.221694 36.6338 0 37.0948 0C37.5967 0 38.0782 0.211617 38.529 0.624775C38.9285 0.977471 39.2256 1.41078 39.4202 1.89448L46.5298 19.4083ZM18.6755 19.4083H1.71094L5.36816 0.0604621H8.8L5.77793 16.0426H19.3209L18.6755 19.4083Z" fill="black"/>
<path fill-rule="evenodd" clip-rule="evenodd" d="M111.304 18.0277H264.518L264.119 19.5896H110.905L111.304 18.0277Z" fill="black"/>
<path d="M252.881 11.3669H257.757V12.1026H255.719V17.4635H254.909V12.1026H252.881V11.3669Z" fill="black"/>
<path d="M263.453 17.4635V13.866C263.453 13.6847 263.474 12.9188 263.474 12.3444H263.453L261.763 17.4635H260.964L259.274 12.3545H259.253C259.253 12.9188 259.274 13.6847 259.274 13.866V17.4635H258.485V11.3669H259.653L261.363 16.5163H261.384L263.095 11.3669H264.252V17.4635H263.453Z" fill="black"/>
</g>
<defs>
<clipPath id="clip0_2001_660">
<rect width="264.518" height="46.6667" fill="white"/>
</clipPath>
</defs>
</svg>
