<svg width="20" height="20" viewBox="0 0 20 20" fill="none" xmlns="http://www.w3.org/2000/svg">
<g clip-path="url(#clip0_2001_871)">
<path d="M10 0C7.34784 0 4.8043 1.05357 2.92893 2.92893C1.05357 4.8043 0 7.34784 0 10C0 12.6522 1.05357 15.1957 2.92893 17.0711C4.8043 18.9464 7.34784 20 10 20C12.6522 20 15.1957 18.9464 17.0711 17.0711C18.9464 15.1957 20 12.6522 20 10C20 7.34784 18.9464 4.8043 17.0711 2.92893C15.1957 1.05357 12.6522 0 10 0Z" fill="white"/>
<path d="M7.9613 4.66663H12.1577C12.872 4.66663 13.4524 5.24698 13.4524 5.96127V14.442C13.4524 15.1563 12.872 15.7367 12.1577 15.7367H7.9613C7.24701 15.7367 6.66666 15.1563 6.66666 14.442V5.96127C6.66666 5.24698 7.24701 4.66663 7.9613 4.66663ZM7.9613 5.02377C7.44416 5.02377 7.0238 5.44341 7.0238 5.96127V13.2381H13.0952V5.96127C13.0952 5.44413 12.6749 5.02377 12.1577 5.02377H7.9613ZM9.33407 6.11054H10.7738V6.46769H9.33407V6.11054ZM7.0238 13.5952V14.4434C7.0238 14.9606 7.44416 15.3809 7.9613 15.3809H12.1577C12.6749 15.3809 13.0952 14.9606 13.0952 14.4434V13.5952H7.0238Z" fill="black" stroke="black" stroke-width="0.35" stroke-linejoin="round"/>
</g>
<defs>
<clipPath id="clip0_2001_871">
<rect width="20" height="20" fill="white"/>
</clipPath>
</defs>
</svg>
