<svg width="20" height="20" viewBox="0 0 20 20" fill="none" xmlns="http://www.w3.org/2000/svg">
<circle cx="10" cy="10" r="9" fill="black"/>
<path d="M10 0C8.68678 -1.11118e-06 7.38642 0.258656 6.17316 0.761202C4.95991 1.26375 3.85752 2.00034 2.92893 2.92893C2.00034 3.85752 1.26375 4.95991 0.761202 6.17316C0.258656 7.38642 -1.11118e-06 8.68678 0 10C-1.11118e-06 11.3132 0.258656 12.6136 0.761202 13.8268C1.26375 15.0401 2.00034 16.1425 2.92893 17.0711C3.85752 17.9997 4.95991 18.7363 6.17316 19.2388C7.38642 19.7413 8.68678 20 10 20C11.3132 20 12.6136 19.7413 13.8268 19.2388C15.0401 18.7363 16.1425 17.9997 17.0711 17.0711C17.9997 16.1425 18.7363 15.0401 19.2388 13.8268C19.7413 12.6136 20 11.3132 20 10C20 8.68678 19.7413 7.38642 19.2388 6.17316C18.7363 4.95991 17.9997 3.85752 17.0711 2.92893C16.1425 2.00034 15.0401 1.26375 13.8268 0.761202C12.6136 0.258656 11.3132 -1.11118e-06 10 0V0ZM8.45703 4.22776C8.51244 4.22428 8.56795 4.23284 8.61974 4.25284C8.67154 4.27285 8.71838 4.30383 8.75707 4.34365C8.79575 4.38348 8.82536 4.43121 8.84385 4.48356C8.86234 4.53591 8.86928 4.59165 8.86418 4.64693C8.82253 5.49394 9.05612 6.33187 9.53125 7.03426C9.53878 7.04442 9.5458 7.05495 9.55228 7.06581C9.58561 7.11089 9.60868 7.16271 9.61988 7.21764C9.63107 7.27258 9.63013 7.32929 9.6171 7.38382C9.60408 7.43835 9.57929 7.48937 9.54448 7.53332C9.50967 7.57726 9.46567 7.61307 9.41557 7.63822L8.29026 8.21515C9.06831 9.72184 10.2909 10.9494 11.7954 11.7323L12.3558 10.6445L12.3723 10.613C12.4033 10.5512 12.4503 10.499 12.5085 10.4617C12.5667 10.4244 12.6338 10.4035 12.7028 10.4011C12.7852 10.3983 12.8663 10.422 12.9342 10.4688C12.9493 10.4763 12.9638 10.4848 12.9778 10.4943C13.6718 10.9637 14.4983 11.1945 15.335 11.1599C15.3495 11.159 15.3641 11.159 15.3786 11.1599C15.43 11.1591 15.481 11.1686 15.5287 11.1878C15.5763 11.2071 15.6197 11.2357 15.6561 11.2719C15.6925 11.3082 15.7213 11.3514 15.7407 11.399C15.7601 11.4466 15.7698 11.4976 15.7692 11.549V15.3756C15.7693 15.3781 15.7693 15.3806 15.7692 15.3831C15.7692 15.3936 15.7687 15.4042 15.7677 15.4147C15.7668 15.4272 15.7653 15.4398 15.7632 15.4522C15.7543 15.5045 15.7346 15.5543 15.7055 15.5986C15.6763 15.6429 15.6383 15.6807 15.5939 15.7097C15.5495 15.7386 15.4995 15.758 15.4472 15.7667C15.3949 15.7754 15.3414 15.7732 15.29 15.7602C9.2279 15.6141 4.34087 10.7098 4.23227 4.63642C4.22904 4.53465 4.26629 4.43576 4.33585 4.36141C4.40541 4.28706 4.50161 4.24332 4.60337 4.23978C4.62965 4.24011 4.65583 4.24313 4.68149 4.2488H8.37139C8.39922 4.24006 8.42795 4.23452 8.45703 4.23227V4.22776ZM5.02704 5.01653C5.32088 10.3987 9.61738 14.6893 15 14.9745V11.9216C14.2524 11.8938 13.5272 11.6885 12.8756 11.3206L12.3032 12.4294C12.2775 12.4842 12.2392 12.5322 12.1914 12.5695C12.1437 12.6067 12.0878 12.6322 12.0284 12.6437C11.9689 12.6553 11.9076 12.6527 11.8493 12.636C11.7911 12.6194 11.7376 12.5893 11.6932 12.5481C9.83399 11.6542 8.33933 10.1491 7.45944 8.28275C7.40683 8.21169 7.3803 8.12468 7.38432 8.03636C7.38569 7.95189 7.41482 7.87023 7.46723 7.80397C7.51964 7.73772 7.5924 7.69056 7.67428 7.66977L8.70944 7.14093C8.34172 6.48931 8.13765 5.76407 8.10998 5.01653H5.02704Z" fill="white"/>
</svg>
