<svg width="49" height="67" viewBox="0 0 49 67" fill="none" xmlns="http://www.w3.org/2000/svg">
<path fill-rule="evenodd" clip-rule="evenodd" d="M42.6469 66.4703H6.24685C3.15425 66.4703 0.646851 63.9057 0.646851 60.7424V6.3275C0.646851 3.16427 3.15425 0.599609 6.24685 0.599609H32.8091C32.8119 0.599609 32.8161 0.599609 32.8189 0.599609H32.8469C33.2949 0.599609 33.6771 0.830157 33.9333 1.16524L47.6939 15.2401C48.0229 15.5021 48.2469 15.8931 48.2469 16.3513V16.3814C48.2469 16.3842 48.2469 16.3857 48.2469 16.3885V60.7424C48.2469 63.9057 45.7395 66.4703 42.6469 66.4703ZM34.2469 5.44111V14.9193H43.5135L34.2469 5.44111ZM45.4469 17.7833H32.8469C32.0727 17.7833 31.4469 17.1418 31.4469 16.3513V3.46355H6.24685C4.70125 3.46355 3.44685 4.7466 3.44685 6.3275V60.7424C3.44685 62.3233 4.70125 63.6064 6.24685 63.6064H42.6469C44.1925 63.6064 45.4469 62.3233 45.4469 60.7424V17.7833ZM37.0469 55.0145H11.8469C11.0727 55.0145 10.4469 54.3745 10.4469 53.5826C10.4469 52.7921 11.0727 52.1506 11.8469 52.1506H37.0469C37.8211 52.1506 38.4469 52.7921 38.4469 53.5826C38.4469 54.3745 37.8211 55.0145 37.0469 55.0145ZM37.0469 43.5588H11.8469C11.0727 43.5588 10.4469 42.9187 10.4469 42.1268C10.4469 41.3363 11.0727 40.6948 11.8469 40.6948H37.0469C37.8211 40.6948 38.4469 41.3363 38.4469 42.1268C38.4469 42.9187 37.8211 43.5588 37.0469 43.5588ZM37.0469 32.103H11.8469C11.0727 32.103 10.4469 31.4629 10.4469 30.671C10.4469 29.8806 11.0727 29.239 11.8469 29.239H37.0469C37.8211 29.239 38.4469 29.8806 38.4469 30.671C38.4469 31.4629 37.8211 32.103 37.0469 32.103Z" fill="#4A4A4A"/>
</svg>
