<svg width="66" height="69" viewBox="0 0 66 69" fill="none" xmlns="http://www.w3.org/2000/svg">
<path d="M63.1326 21.0243L45.8358 3.07385L24.7354 24.9735V0.836914H0.274292V68.5374H65.5039V43.1497H41.8147L63.1326 21.0243ZM45.8358 7.06254L59.2881 21.0243L37.9716 43.1497H11.0657L24.7354 28.9622L45.8358 7.06254ZM2.99219 3.65777H22.0175V27.7944L7.22261 43.1497H2.99219V3.65777ZM62.786 45.9706V65.7165H2.99219V45.9706H62.786Z" fill="#4A4A4A"/>
<path d="M28.8122 48.7914H17.9406V62.8956H28.8122V48.7914ZM26.0943 60.0748H20.6585V51.6122H26.0943V60.0748ZM43.7607 48.7914H32.8891V62.8956H43.7607V48.7914ZM41.0428 60.0748H35.607V51.6122H41.0428V60.0748ZM58.7092 48.7914H47.8375V62.8956H58.7092V48.7914ZM55.9913 60.0748H50.5555V51.6122H55.9913V60.0748ZM7.06903 54.4331H9.78693V57.2539H7.06903V54.4331Z" fill="#4A4A4A"/>
</svg>
