<svg width="20" height="20" viewBox="0 0 20 20" fill="none" xmlns="http://www.w3.org/2000/svg">
<path d="M10 0C4.47716 0 0 4.47716 0 10C0 15.5228 4.47716 20 10 20C15.5228 20 20 15.5228 20 10C20 4.47716 15.5228 0 10 0ZM9.77431 7.22222H14.8264C14.8677 7.22149 14.9086 7.22999 14.9462 7.24708C14.9839 7.26417 15.0172 7.28944 15.0438 7.32104C15.0704 7.35264 15.0896 7.38977 15.1001 7.42974C15.1105 7.46971 15.1119 7.51151 15.1042 7.55208V10.0521C15.7978 10.488 16.2674 11.2568 16.2674 12.1354C16.2674 13.4917 15.173 14.6007 13.8194 14.6007C13.2801 14.6007 12.7843 14.4119 12.3785 14.1146H4.72222C4.64855 14.1146 4.5779 14.0853 4.52581 14.0332C4.47372 13.9811 4.44445 13.9105 4.44444 13.8368V7.51736C4.44731 7.44481 4.47847 7.37626 4.53125 7.32639C4.54178 7.31381 4.5534 7.30219 4.56597 7.29167C4.61159 7.25891 4.66607 7.24075 4.72222 7.23958L9.77431 7.22222ZM5.69444 7.79514L9.77431 10.3472L13.8542 7.79514H5.69444ZM14.5486 8.00347L9.93056 10.9028C9.88633 10.9305 9.83519 10.9452 9.78299 10.9452C9.73079 10.9452 9.67964 10.9305 9.63542 10.9028L5 8.02083V13.559H11.8229C11.5332 13.1548 11.3542 12.6691 11.3542 12.1354C11.3542 11.7963 11.4206 11.475 11.5451 11.1806C11.6697 10.8862 11.8609 10.6223 12.0833 10.3993C12.1944 10.288 12.3001 10.1753 12.4306 10.0868C12.5611 9.99836 12.718 9.92339 12.8646 9.86111C13.1583 9.73628 13.481 9.67008 13.8194 9.67014C13.8885 9.67014 13.9437 9.67472 14.0104 9.6875C14.1965 9.70311 14.3765 9.73667 14.5486 9.79167V8.00347ZM13.8021 10.2257C13.1443 10.2255 12.5807 10.5521 12.2396 11.059C12.1714 11.1604 12.114 11.2748 12.066 11.3889C12.018 11.5031 11.9697 11.6291 11.9444 11.7535C11.9192 11.8779 11.9097 12.0033 11.9097 12.1354C11.9099 12.275 11.9321 12.4184 11.9618 12.5521C11.9679 12.5801 11.9718 12.5938 11.9792 12.6215C12.0084 12.73 12.0531 12.8328 12.1007 12.934C12.1105 12.9553 12.1075 12.9829 12.1181 13.0035C12.1697 13.1038 12.2402 13.1913 12.309 13.2813C12.3255 13.3025 12.3438 13.3301 12.3611 13.3507C12.4341 13.438 12.5154 13.5198 12.6042 13.5938C12.9334 13.8684 13.3562 14.0451 13.8194 14.0451C14.8719 14.0451 15.7118 13.1923 15.7118 12.1354C15.7118 11.3667 15.2675 10.7016 14.6181 10.3993C14.5863 10.3843 14.5463 10.3774 14.5139 10.3646C14.4231 10.3284 14.3332 10.3 14.2361 10.2778C14.2055 10.2711 14.1802 10.266 14.1493 10.2604C14.0419 10.2415 13.9324 10.2257 13.8194 10.2257H13.8021ZM14.6528 11.2847C14.7113 11.2792 14.7701 11.2925 14.8206 11.3225C14.8712 11.3525 14.9109 11.3978 14.934 11.4519C14.9572 11.5059 14.9626 11.5659 14.9495 11.6232C14.9364 11.6805 14.9055 11.7322 14.8611 11.7708L13.75 12.8819C13.7215 12.9126 13.6864 12.9364 13.6473 12.9515C13.6083 12.9667 13.5663 12.9728 13.5246 12.9695C13.4829 12.9661 13.4424 12.9534 13.4063 12.9322C13.3702 12.9111 13.3393 12.882 13.316 12.8472L12.7778 12.3264C12.7361 12.2896 12.7063 12.2412 12.6924 12.1874C12.6785 12.1336 12.6811 12.0768 12.6998 12.0245C12.7185 11.9721 12.7524 11.9266 12.7973 11.8937C12.8422 11.8609 12.8958 11.8423 12.9514 11.8403C12.9903 11.8394 13.0289 11.8466 13.0648 11.8616C13.1007 11.8765 13.133 11.8988 13.1597 11.9271L13.5417 12.2917L14.4618 11.3715C14.5117 11.3187 14.5802 11.2876 14.6528 11.2847Z" fill="white"/>
</svg>
